<svg xmlns="http://www.w3.org/2000/svg" width="48" height="48" viewBox="0 0 48 48" version="1.1">
	<path d="M22.777776 1.6121760000000003C22.541136 1.6489440000000002 22.141536 1.732608 21.889775999999998 1.798128C19.814928 2.337984 17.816976 3.840528 16.754208 5.660208000000001L16.560959999999998 5.9911200000000004 16.30848 5.925408C15.106319999999998 5.6124 13.447536 5.632272 12.126336 5.975568C10.095792000000001 6.5031360000000005 8.390352 7.721424 7.193856000000001 9.499104C6.444768 10.612032000000001 6.026256 11.728032 5.828064 13.141104000000002C5.722128 13.896287999999998 5.759184 15.174384 5.906976 15.864C5.96352 16.128 6.020016 16.398 6.032496 16.464C6.0523679999999995 16.569504 6.017616 16.605552 5.7451680000000005 16.761984C5.004528 17.187312000000002 4.12368 17.954448 3.554592 18.669696000000002C2.11368 20.480832000000003 1.496352 22.42776 1.6400160000000001 24.708000000000002C1.7550240000000001 26.532672 2.42688 28.174992000000003 3.657696 29.64C4.330896 30.441360000000003 4.849296 30.871392 5.965536 31.55448C6.038976 31.599456 6.0888 31.652784 6.076272 31.673088C6.009408 31.781232000000003 5.85096 32.756304 5.8128 33.294048C5.708112 34.77048 6.021168 36.374976000000004 6.6692160000000005 37.683744C7.746576 39.859488 9.82104 41.555472 12.120000000000001 42.140064C13.484304 42.487007999999996 14.936544 42.52152 16.165872 42.236304000000004C16.384704 42.185520000000004 16.590672 42.144 16.623648000000003 42.144C16.656576 42.144 16.762848 42.281856 16.85976 42.450384C17.862096 44.19312 19.807248 45.676320000000004 21.864 46.26624C22.649231999999998 46.491456 23.014608 46.53408 24.168 46.53504C25.463904000000003 46.536144 25.872287999999998 46.4772 26.878704 46.143600000000006C28.634544 45.561552 30.201600000000003 44.384064 31.243247999999998 42.864000000000004C31.39704 42.6396 31.56096 42.3804 31.60752 42.288000000000004C31.654080000000004 42.195600000000006 31.696512000000002 42.11472 31.701840000000004 42.108288C31.707120000000003 42.101856 31.904159999999997 42.1392 32.139696 42.191328C34.307424000000005 42.670992000000005 36.85656 42.178512000000005 38.68272 40.9272C40.552896 39.645792 41.79936 37.806912000000004 42.266639999999995 35.64C42.522576 34.45296 42.528144000000005 33.207552 42.28248 32.073744C42.217104 31.772064 42.199728 31.605408 42.232416 31.594512C42.352656 31.554432000000002 43.302288 30.891504 43.616016 30.628608C44.37216 29.99496 45.229008 28.882368 45.725904 27.888864C46.04952 27.241872 46.341456 26.362032 46.473456 25.635888C46.593408000000004 24.975888 46.616592 23.426496 46.516608 22.752C46.14888 20.271312 44.644800000000004 18.006672000000002 42.490752 16.690416C42.122736 16.465488 42.092736 16.435632 42.121584 16.322784C42.511776000000005 14.795376000000001 42.439872 13.089648000000002 41.91912000000001 11.52C41.097840000000005 9.044544 39.024432000000004 6.973056 36.564672 6.170400000000001C35.436 5.802096 34.192512 5.651376 33.10824 5.751408C32.758320000000005 5.783712 32.288399999999996 5.851632 32.064 5.902416C31.68144 5.98896 31.652256 5.989632 31.595616 5.91336C31.5624 5.8686240000000005 31.386335999999996 5.6052 31.204416 5.328C30.367728 4.053168 29.207520000000002 3.047232 27.77352 2.3533920000000004C26.934768 1.9475040000000001 26.283504 1.745856 25.368000000000002 1.608576C24.766752000000004 1.518384 23.368704 1.5203039999999999 22.777776 1.6121760000000003M23.424096000000002 4.56288C22.265232 4.707408 21.129744 5.247072 20.274 6.059952C19.654656 6.6482399999999995 19.280208000000002 7.214592000000001 18.913824 8.11704C18.65184 8.762256 18.51312 8.971584 18.22824 9.151440000000001C17.729808 9.46608 17.228352 9.48648 16.608 9.21744C15.775535999999999 8.856336 15.157680000000001 8.723328 14.304 8.721264000000001C11.901216 8.715504000000001 9.813984 10.210896 9.053184 12.48312C8.66016 13.656816000000001 8.697696 15.112992 9.149424 16.21848C9.449328 16.9524 9.504 17.129376 9.504 17.366112C9.504 17.854272 9.230592 18.39264 8.869488 18.615552C8.782896000000001 18.669024 8.451024 18.818640000000002 8.132064 18.948096C7.339824000000001 19.2696 6.803903999999999 19.627728 6.216 20.228544C5.281776000000001 21.183312 4.785552 22.24344 4.647168000000001 23.580000000000002C4.47984 25.196879999999997 5.070912000000001 26.820576 6.260592 28.012031999999998C6.882624000000001 28.635024 7.412832 28.970544 8.334912000000001 29.324832C8.822976 29.512368000000002 9.080256 29.696496000000003 9.262176 29.988432000000003C9.564528 30.473712000000003 9.575376 30.995088 9.296016 31.614864C8.772048 32.777280000000005 8.663328 34.030368 8.979023999999999 35.269152C9.238848 36.288816000000004 9.75984 37.179792 10.510128000000002 37.887552C11.578608000000001 38.895552 12.880464000000002 39.408 14.372448 39.408C15.171552 39.408 15.799152000000001 39.263952 16.752 38.861904C17.400096 38.588448 17.947584000000003 38.640336 18.427824 39.020688C18.675024 39.21648 18.759888 39.359568 19.044096 40.059936C19.349952000000002 40.81368 19.727136 41.387568 20.274096 41.931408000000005C22.427471999999998 44.072544 25.787712000000003 44.117808 28.013472000000004 42.03576C28.575360000000003 41.510112 29.174688000000003 40.59648 29.375088 39.96C29.482656 39.618432 29.724576 39.212736 29.920800000000003 39.044736C30.317088000000002 38.705568 30.927120000000002 38.597952 31.416 38.781024C32.62992 39.235536 33.165504 39.359568 33.915552 39.359856C37.066608 39.36096 39.599376 36.71064 39.440304 33.578688C39.40536 32.890128000000004 39.290304 32.387472 38.99928 31.651632C38.695008 30.882336 38.704416 30.465552 39.037296000000005 29.967503999999998C39.224448 29.687424000000004 39.526272000000006 29.477904000000002 39.993984 29.303232C41.58504 28.709183999999997 42.78024 27.451632 43.319712 25.804080000000003C43.676976 24.7128 43.666560000000004 23.324016 43.292736000000005 22.214351999999998C43.015392 21.391008000000003 42.59472 20.741808 41.883792 20.04C41.27112 19.4352 40.8732 19.177728000000002 40.027056 18.838608C39.376224 18.577776 39.1668 18.447744 38.978352 18.187632C38.625744 17.700864 38.602608000000004 17.162592 38.90328 16.441776C39.676752 14.587439999999999 39.434304 12.515424 38.26176 10.95936C37.193664000000005 9.54192 35.567472 8.735808 33.776544 8.736048C33.058464 8.736191999999999 32.457504 8.868384 31.57104 9.22128C31.210895999999998 9.364656 31.035888 9.408 30.816816000000003 9.408C30.173808 9.408 29.656896 9.047856000000001 29.404463999999997 8.424C29.119007999999997 7.7184479999999995 28.803312 7.113936 28.527120000000004 6.744C27.714000000000002 5.6549760000000004 26.403840000000002 4.842768 25.085712 4.61064C24.662399999999998 4.536096 23.830464000000003 4.512192000000001 23.424096000000002 4.56288M18.072576 13.157136000000001C16.799424000000002 13.291104 15.539856 14.004192000000002 14.790672 15.015072000000002C14.088287999999999 15.962832000000002 13.782432000000002 16.971024 13.837296 18.157968C13.928160000000002 20.125008 15.20688 21.802224000000002 17.112000000000002 22.453104000000003C17.573136 22.61064 17.983728 22.670688 18.6 22.670688C19.438416 22.670688 19.981776 22.547856 20.699808 22.196064C22.350336000000002 21.38736 23.376 19.7424 23.376 17.904C23.376 15.428688 21.537504 13.408944 19.052112 13.153920000000001C18.784656 13.126464 18.541104 13.10688 18.510912 13.110384C18.480719999999998 13.113888000000001 18.283488000000002 13.134912 18.072576 13.157136000000001M31.906703999999998 15.027168C31.78056 15.047664 31.58616 15.118752 31.474704 15.185136000000002C31.161888 15.371424000000001 15.9216 30.652992 15.815904 30.88632C15.688848 31.166832 15.666 31.660943999999997 15.766176 31.962576C16.058448 32.842416 17.147088 33.26784 17.928 32.807376C18.0336 32.74512 21.579072 29.231375999999997 25.806816 24.999071999999998C33.198527999999996 17.599439999999998 33.49752 17.293344 33.594816 17.026176C33.996576 15.923136000000001 33.079248 14.836848 31.906703999999998 15.027168M18.162432000000003 16.195776C17.671295999999998 16.31496 17.246351999999998 16.666895999999998 16.991856000000002 17.165280000000003C16.886544 17.371488 16.872 17.461199999999998 16.872 17.904C16.872 18.366144 16.883664 18.431040000000003 17.012591999999998 18.685488C17.186304 19.028256000000003 17.531568 19.35792 17.893536 19.526592C18.126863999999998 19.635312000000003 18.232752 19.654512 18.6 19.654512C18.967248 19.654512 19.073136 19.635312000000003 19.306464000000002 19.526592C19.668432000000003 19.35792 20.013696 19.028256000000003 20.187408 18.685488C20.316336 18.431040000000003 20.328 18.366144 20.328 17.904C20.328 17.461199999999998 20.313456000000002 17.371488 20.208144 17.165280000000003C19.948176 16.656192 19.528272 16.314096 19.015056 16.19328C18.687984 16.116336 18.487392 16.116912 18.162432000000003 16.195776M30.203856 25.348944C28.457376 25.552128 26.914896 26.77032 26.306496000000003 28.426992000000002C26.079791999999998 29.044320000000003 26.042976 29.277408 26.042976 30.096C26.042976 30.705840000000002 26.062608 30.95976 26.128272000000003 31.2C26.605872 32.94696 27.80088 34.201344 29.440080000000002 34.676352C32.49696 35.562192 35.554176 33.285504 35.566320000000005 30.114288C35.575632 27.680496 33.741648000000005 25.616448000000002 31.330944 25.347648000000003C30.816527999999998 25.290288 30.707088 25.290432000000003 30.203856 25.348944M30.371808 28.369056000000004C29.842416 28.502784000000002 29.321904000000004 28.962192 29.135616 29.460096C29.012016000000003 29.790335999999996 28.997568 30.354 29.104944 30.654528C29.403024 31.488768 30.243168 31.985280000000003 31.092048 31.828896C31.674288 31.721615999999997 32.104224 31.398528 32.362224 30.874464C32.507183999999995 30.580080000000002 32.52 30.516768 32.52 30.096C32.52 29.676288 32.506944 29.611487999999998 32.364 29.321088C32.073408 28.730832 31.543104000000003 28.376256 30.899520000000003 28.342032C30.708384000000002 28.331856 30.470928 28.344048 30.371808 28.369056000000004" stroke="none" fill="#000" fill-rule="evenodd"></path>
</svg>