<?xml version="1.0" encoding="UTF-8"?>
<svg id="Layer_1" data-name="Layer 1" xmlns="http://www.w3.org/2000/svg" viewBox="0 0 186.74 153.8">
  <defs>
    <style>
      .cls-1 {
        font-family: MyriadPro-Regular, 'Myriad Pro';
        font-size: 12px;
      }

      .cls-2, .cls-3 {
        stroke-width: 0px;
      }

      .cls-4 {
        font-family: Bauhaus93, 'Bauhaus 93';
        font-size: 20px;
      }

      .cls-4, .cls-3 {
        fill: #fff;
      }
    </style>
  </defs>
  <path class="cls-2" d="m79.72.64c-2.84.47-8.63,2.08-12.8,3.5-8.25,2.84-8.34,3.03-6.73,9.65.47,2.08-.09,2.74-5.4,5.68-7.96,4.45-18.67,15.33-23.98,24.32-5.02,8.61-9.01,20.16-9.67,28.2-.66,8.61-1.04,9.75-3.41,10.13-1.9.28-2.09.85-2.37,6.15l-.28,5.96h-7.68c-8.72,0-8.53-.66-4.46,10.22l2.27,6.06-2.65,7.29c-1.42,3.98-2.56,7.76-2.56,8.42,0,.85,4.64,1.14,18.39,1.14h18.48l5.12,5.11c15.92,16,40.19,23.95,62.09,20.54,14.31-2.18,30.52-10.6,40.48-20.82l4.64-4.83h18.77c10.33,0,18.77-.19,18.77-.38,0-.28-1.33-3.98-2.94-8.23l-2.84-7.86,2.46-7c1.33-3.79,2.65-7.48,2.94-8.23.47-1.04-1.04-1.42-7.39-1.61l-7.87-.28-.28-5.96c-.28-5.39-.47-5.87-2.46-5.87s-2.27-.47-2.75-6.91c-1.9-21.58-14.6-43.06-31.94-54.14-7.58-4.83-7.58-4.92-6.07-8.52,1.8-4.35.57-5.39-10.81-9.09C109.01.83,105.79.26,96.21.07c-6.26-.19-13.65,0-16.49.57Z"/>
  <path class="cls-2" d="m113.56,8.4c4.93,1.42,7.3,2.56,7.3,3.5,0,1.61-.19,1.51-9.01-1.14-9.29-2.93-27.3-2.93-37.25,0-8.72,2.46-8.25,2.46-8.25.66,0-1.61,7.3-3.98,16.3-5.21,8.63-1.14,22.47-.19,30.9,2.18Z"/>
  <path class="cls-3" d="m102.37,14.74c7.49,1.23,15.17,3.6,15.17,4.83,0,.66-9.19,21.11-21.52,47.99l-2.75,5.96-2.94-6.44c-4.74-10.22-7.2-16.37-6.82-16.66l4.17-2.08c4.17-2.08,5.88-5.39,4.83-9.28-1.23-5.11-9.01-7.48-12.89-3.98-1.14,1.04-2.27,1.42-2.75.85-.66-.66-7.68-16.28-7.68-17.04,0-.57,10.24-3.5,14.6-4.16,7.2-1.04,11.75-1.04,18.58,0Z"/>
  <path class="cls-3" d="m76.97,51.28c7.11,16.09,12.99,29.53,12.99,29.91.09.47-14.22.76-31.66.76h-31.75v-5.02c.09-14.2,8.91-33.22,20.57-44.39,4.46-4.26,14.69-11.17,15.92-10.79.57.09,6.82,13.44,13.93,29.53Z"/>
  <path class="cls-3" d="m130.15,25.44c6.73,4.35,17.54,16,21.23,22.9,4.27,8.04,7.58,18.74,8.34,26.69l.66,6.91h-31.85c-17.92,0-31.85-.38-31.85-.85s2.46-6.34,5.59-12.97c3.03-6.72,8.63-19.02,12.42-27.35q8.34-18.46,9.57-18.46c.47,0,3.13,1.42,5.88,3.12Z"/>
  <path class="cls-3" d="m149.77,115.82c0,1.42-5.12,7.95-9.95,12.78-22.56,22.62-58.96,25.55-85.12,6.91-6.45-4.54-14.22-12.49-17.06-17.51l-1.71-2.93h56.87c31.38,0,56.97.38,56.97.76Z"/>
  <path class="cls-2" d="m99.62,20.99c-2.37,3.03-2.46,4.92-.47,7.76,2.09,3.03,7.2,2.84,9.76-.47,2.27-2.84,1.9-5.49-1.04-8.14-2.75-2.37-5.97-1.99-8.25.85Z"/>
  <path class="cls-2" d="m82.47,20.99c-1.04,1.14-.95,1.7.28,3.03,1.52,1.42,1.71,1.42,3.13,0,1.8-1.7,1.14-4.54-.85-4.54-.76,0-1.9.66-2.56,1.51Z"/>
  <path class="cls-2" d="m98.49,38.02c-.95,1.14-.85,1.7.38,2.93s1.8,1.33,2.94.28c1.99-1.61,1.9-2.56-.28-3.69-1.33-.76-2.09-.66-3.03.47Z"/>
  <path class="cls-2" d="m93.56,56.1c-1.14,1.04-.66,3.12.76,3.69,1.9.76,4.27-1.23,3.6-3.03-.47-1.33-3.22-1.8-4.36-.66Z"/>
  <text transform="translate(47.49 104.96)"><tspan><tspan class="cls-1" x="0" y="0"> </tspan><tspan class="cls-4" x="2.54" y="0">QuickBite</tspan></tspan></text>
</svg>